<?xml version="1.0" standalone="no"?>
<svg xmlns="http://www.w3.org/2000/svg" xmlns:xlink="http://www.w3.org/1999/xlink" width="797pt" height="787pt" viewBox="0.00 0.00 797.45 786.51">
<g id="graph0" class="graph" transform="translate(4,782.510009765625) scale(1)" data-name="Mealy_String_Match">

<polygon fill="white" stroke="none" points="-4,4 -4,-782.51 793.45,-782.51 793.45,4 -4,4"/>
<text text-anchor="middle" x="394.73" y="-8.2" font-family="Times,serif" font-size="14.00">Mealy 状态机 </text>
<!-- IDLE -->
<g id="node1" class="node" pointer-events="visible" data-name="IDLE">

<ellipse fill="none" stroke="black" cx="60.82" cy="-325.16" rx="33.05" ry="33.05"/>
<ellipse fill="none" stroke="black" cx="60.82" cy="-325.16" rx="37.05" ry="37.05"/>
<text text-anchor="middle" x="60.82" y="-320.96" font-family="Times,serif" font-size="14.00">IDLE</text>
</g>
<!-- IDLE&#45;&gt;IDLE -->
<g id="edge4" class="edge" data-name="IDLE-&gt;IDLE">

<path fill="none" stroke="red" stroke-width="2" stroke-dasharray="5,2" d="M98.11,-328.51C108.18,-328.34 115.84,-327.22 115.84,-325.16 115.84,-324.17 114.05,-323.39 111.05,-322.84"/>
<polygon fill="red" stroke="red" stroke-width="2" points="111.37,-319.35 101.13,-322.05 110.82,-326.33 111.37,-319.35"/>
<text text-anchor="middle" x="149.3" y="-320.96" font-family="Times,serif" font-size="14.00" fill="red">CR, LF / 0*</text>
</g>
<!-- IDLE&#45;&gt;IDLE -->
<g id="edge26" class="edge" data-name="IDLE-&gt;IDLE">

<path fill="none" stroke="black" d="M97.71,-330.82C134.77,-333.36 182.75,-331.47 182.75,-325.16 182.75,-319.47 143.68,-317.38 108.82,-318.89" style=""/>
<polygon fill="black" stroke="black" points="109.01,-315.37 99.22,-319.42 109.4,-322.36 109.01,-315.37"/>
<text text-anchor="middle" x="204.91" y="-320.96" font-family="Times,serif" font-size="14.00" style="">other / -</text>
</g>
<!-- s_state -->
<g id="node2" class="node" pointer-events="visible" data-name="s_state">

<ellipse fill="none" stroke="black" cx="273.82" cy="-84.74" rx="37.14" ry="37.14"/>
<text text-anchor="middle" x="273.82" y="-80.54" font-family="Times,serif" font-size="14.00">s_state</text>
</g>
<!-- IDLE&#45;&gt;s_state -->
<g id="edge17" class="edge" data-name="IDLE-&gt;s_state">

<path fill="none" stroke="black" d="M91.52,-303.97C134.52,-264.11 210.88,-178.4 249.94,-126.61"/>
<polygon fill="black" stroke="black" points="252.52,-129 255.66,-118.88 246.9,-124.84 252.52,-129"/>
<text text-anchor="middle" x="188.62" y="-219.49" font-family="Times,serif" font-size="14.00">s, S / -</text>
</g>
<!-- h_state -->
<g id="node9" class="node" pointer-events="visible" data-name="h_state">

<ellipse fill="none" stroke="black" cx="592.68" cy="-692.28" rx="38.28" ry="38.28"/>
<text text-anchor="middle" x="592.68" y="-688.08" font-family="Times,serif" font-size="14.00">h_state</text>
</g>
<!-- IDLE&#45;&gt;h_state -->
<g id="edge22" class="edge" data-name="IDLE-&gt;h_state">

<path fill="none" stroke="black" d="M87.15,-351.45C172.42,-420.98 440.6,-606.46 547.85,-670.56"/>
<polygon fill="black" stroke="black" points="546.02,-673.54 556.41,-675.61 549.58,-667.51 546.02,-673.54"/>
<text text-anchor="middle" x="297.67" y="-515.2" font-family="Times,serif" font-size="14.00">h, H / -</text>
</g>
<!-- s_state&#45;&gt;IDLE -->
<g id="edge5" class="edge" data-name="s_state-&gt;IDLE">

<path fill="none" stroke="red" stroke-width="2" stroke-dasharray="5,2" d="M243.12,-105.93C200.47,-145.46 125.01,-230.08 85.67,-282"/>
<polygon fill="red" stroke="red" stroke-width="2" points="83.03,-279.69 79.88,-289.81 88.65,-283.86 83.03,-279.69"/>
<text text-anchor="middle" x="197.85" y="-198.17" font-family="Times,serif" font-size="14.00" fill="red">CR, LF / 0*</text>
</g>
<!-- s_state&#45;&gt;IDLE -->
<g id="edge27" class="edge" data-name="s_state-&gt;IDLE">

<path fill="none" stroke="black" d="M248.97,-112.79C210.33,-156.4 135.86,-240.46 93.11,-288.72" style=""/>
<polygon fill="black" stroke="black" points="90.53,-286.35 86.52,-296.16 95.77,-290.99 90.53,-286.35"/>
<text text-anchor="middle" x="193.2" y="-188.15" font-family="Times,serif" font-size="14.00" style="">other / -</text>
</g>
<!-- s_state&#45;&gt;s_state -->
<g id="edge39" class="edge" data-name="s_state-&gt;s_state">

<path fill="none" stroke="black" d="M310.79,-91.46C321.17,-91.16 329.14,-88.92 329.14,-84.74 329.14,-82.26 326.33,-80.46 321.87,-79.35"/>
<polygon fill="black" stroke="black" points="322.63,-75.91 312.29,-78.2 321.8,-82.86 322.63,-75.91"/>
<text text-anchor="middle" x="347.03" y="-80.54" font-family="Times,serif" font-size="14.00">s, S / -</text>
</g>
<!-- st_state -->
<g id="node3" class="node" pointer-events="visible" data-name="st_state">

<ellipse fill="none" stroke="black" cx="438.02" cy="-64.8" rx="40.01" ry="40.01"/>
<text text-anchor="middle" x="438.02" y="-60.6" font-family="Times,serif" font-size="14.00">st_state</text>
</g>
<!-- s_state&#45;&gt;st_state -->
<g id="edge18" class="edge" data-name="s_state-&gt;st_state">

<path fill="none" stroke="black" d="M311.36,-85.96C334.02,-84.34 363.19,-80.99 387.81,-77.24"/>
<polygon fill="black" stroke="black" points="388.31,-80.71 397.64,-75.68 387.21,-73.8 388.31,-80.71"/>
<text text-anchor="middle" x="367.08" y="-69" font-family="Times,serif" font-size="14.00">t, T / -</text>
</g>
<!-- s_state&#45;&gt;h_state -->
<g id="edge50" class="edge" data-name="s_state-&gt;h_state">

<path fill="none" stroke="black" d="M288.28,-119.36C338.12,-223.96 501.91,-536.34 566.4,-650.19"/>
<polygon fill="black" stroke="black" points="563.22,-651.68 571.21,-658.63 569.3,-648.21 563.22,-651.68"/>
<text text-anchor="middle" x="407.51" y="-388.98" font-family="Times,serif" font-size="14.00">h, H / -</text>
</g>
<!-- st_state&#45;&gt;IDLE -->
<g id="edge6" class="edge" data-name="st_state-&gt;IDLE">

<path fill="none" stroke="red" stroke-width="2" stroke-dasharray="5,2" d="M402.58,-84.36C331.63,-129.09 172.78,-238.58 99.35,-293.22"/>
<polygon fill="red" stroke="red" stroke-width="2" points="97.48,-290.25 91.58,-299.05 101.68,-295.85 97.48,-290.25"/>
<text text-anchor="middle" x="284.42" y="-176.19" font-family="Times,serif" font-size="14.00" fill="red">CR, LF / 0*</text>
</g>
<!-- st_state&#45;&gt;IDLE -->
<g id="edge28" class="edge" data-name="st_state-&gt;IDLE">

<path fill="none" stroke="black" d="M407.16,-91C339.77,-141.79 179.52,-252.53 102.94,-301.36" style=""/>
<polygon fill="black" stroke="black" points="101.44,-298.17 94.86,-306.47 105.18,-304.08 101.44,-298.17"/>
<text text-anchor="middle" x="277.21" y="-200.38" font-family="Times,serif" font-size="14.00" style="">other / -</text>
</g>
<!-- st_state&#45;&gt;s_state -->
<g id="edge40" class="edge" data-name="st_state-&gt;s_state">

<path fill="none" stroke="black" d="M397.56,-63.79C374.41,-65.56 345.25,-68.99 321.06,-72.76"/>
<polygon fill="black" stroke="black" points="320.78,-69.26 311.47,-74.32 321.9,-76.16 320.78,-69.26"/>
<text text-anchor="middle" x="341.42" y="-55.67" font-family="Times,serif" font-size="14.00">s, S / -</text>
</g>
<!-- sta_state -->
<g id="node4" class="node" pointer-events="visible" data-name="sta_state">

<ellipse fill="none" stroke="black" cx="137.69" cy="-178.7" rx="44.08" ry="44.08"/>
<text text-anchor="middle" x="137.69" y="-174.5" font-family="Times,serif" font-size="14.00">sta_state</text>
</g>
<!-- st_state&#45;&gt;sta_state -->
<g id="edge19" class="edge" data-name="st_state-&gt;sta_state">

<path fill="none" stroke="black" d="M400.28,-79.11C347.08,-99.29 249.81,-136.18 189.76,-158.96"/>
<polygon fill="black" stroke="black" points="188.88,-155.54 180.78,-162.36 191.37,-162.09 188.88,-155.54"/>
<text text-anchor="middle" x="314.46" y="-123.23" font-family="Times,serif" font-size="14.00">a, A / -</text>
</g>
<!-- sto_state -->
<g id="node7" class="node" pointer-events="visible" data-name="sto_state">

<ellipse fill="none" stroke="black" cx="702.36" cy="-247.27" rx="44.66" ry="44.66"/>
<text text-anchor="middle" x="702.36" y="-243.07" font-family="Times,serif" font-size="14.00">sto_state</text>
</g>
<!-- st_state&#45;&gt;sto_state -->
<g id="edge21" class="edge" data-name="st_state-&gt;sto_state">

<path fill="none" stroke="black" d="M471.23,-87.73C517.93,-119.96 603.2,-178.82 656.09,-215.33"/>
<polygon fill="black" stroke="black" points="653.79,-217.99 664,-220.79 657.76,-212.23 653.79,-217.99"/>
<text text-anchor="middle" x="543.83" y="-155.73" font-family="Times,serif" font-size="14.00">o, O / -</text>
</g>
<!-- st_state&#45;&gt;h_state -->
<g id="edge51" class="edge" data-name="st_state-&gt;h_state">

<path fill="none" stroke="black" d="M447.69,-104.05C474.73,-213.74 551.02,-523.28 580.68,-643.6"/>
<polygon fill="black" stroke="black" points="577.24,-644.29 583.04,-653.17 584.04,-642.62 577.24,-644.29"/>
<text text-anchor="middle" x="494.35" y="-378.02" font-family="Times,serif" font-size="14.00">h, H / -</text>
</g>
<!-- sta_state&#45;&gt;IDLE -->
<g id="edge7" class="edge" data-name="sta_state-&gt;IDLE">

<path fill="none" stroke="red" stroke-width="2" stroke-dasharray="5,2" d="M111.94,-214.76C100.91,-233.91 88.37,-257.65 78.4,-278.22"/>
<polygon fill="red" stroke="red" stroke-width="2" points="75.28,-276.63 74.16,-287.17 81.6,-279.63 75.28,-276.63"/>
<text text-anchor="middle" x="61.72" y="-250.69" font-family="Times,serif" font-size="14.00" fill="red">CR, LF / 0*</text>
</g>
<!-- sta_state&#45;&gt;IDLE -->
<g id="edge29" class="edge" data-name="sta_state-&gt;IDLE">

<path fill="none" stroke="black" d="M122.64,-220.37C112.93,-240.8 100.15,-265.26 88.68,-285.42" style=""/>
<polygon fill="black" stroke="black" points="85.74,-283.51 83.76,-293.92 91.8,-287.02 85.74,-283.51"/>
<text text-anchor="middle" x="127.82" y="-257.1" font-family="Times,serif" font-size="14.00" style="">other / -</text>
</g>
<!-- sta_state&#45;&gt;s_state -->
<g id="edge41" class="edge" data-name="sta_state-&gt;s_state">

<path fill="none" stroke="black" d="M174.17,-153.52C192.63,-140.78 215.07,-125.29 233.98,-112.24"/>
<polygon fill="black" stroke="black" points="235.74,-115.28 241.98,-106.71 231.76,-109.51 235.74,-115.28"/>
<text text-anchor="middle" x="186.18" y="-120.28" font-family="Times,serif" font-size="14.00">s, S / -</text>
</g>
<!-- star_state -->
<g id="node5" class="node" pointer-events="visible" data-name="star_state">

<ellipse fill="none" stroke="black" cx="741.95" cy="-407.87" rx="47.51" ry="47.51"/>
<text text-anchor="middle" x="741.95" y="-403.67" font-family="Times,serif" font-size="14.00">star_state</text>
</g>
<!-- sta_state&#45;&gt;star_state -->
<g id="edge20" class="edge" data-name="sta_state-&gt;star_state">

<path fill="none" stroke="black" d="M179.22,-194.45C285.36,-234.71 566.62,-341.37 686.53,-386.85"/>
<polygon fill="black" stroke="black" points="685.27,-390.11 695.86,-390.39 687.75,-383.57 685.27,-390.11"/>
<text text-anchor="middle" x="414.6" y="-294.85" font-family="Times,serif" font-size="14.00">r, R / -</text>
</g>
<!-- sta_state&#45;&gt;h_state -->
<g id="edge52" class="edge" data-name="sta_state-&gt;h_state">

<path fill="none" stroke="black" d="M167.19,-212C248.25,-303.5 474.01,-558.33 559.39,-654.7"/>
<polygon fill="black" stroke="black" points="556.71,-656.96 565.96,-662.12 561.95,-652.32 556.71,-656.96"/>
<text text-anchor="middle" x="343.46" y="-437.55" font-family="Times,serif" font-size="14.00">h, H / -</text>
</g>
<!-- star_state&#45;&gt;IDLE -->
<g id="edge8" class="edge" data-name="star_state-&gt;IDLE">

<path fill="none" stroke="red" stroke-width="2" stroke-dasharray="5,2" d="M695.03,-398.49C571.4,-379.34 237.51,-338.78 110.64,-327.47"/>
<polygon fill="red" stroke="red" stroke-width="2" points="111.25,-324.01 100.99,-326.64 110.65,-330.98 111.25,-324.01"/>
<text text-anchor="middle" x="369.39" y="-350.38" font-family="Times,serif" font-size="14.00" fill="red">CR, LF / 0*</text>
</g>
<!-- star_state&#45;&gt;IDLE -->
<g id="edge30" class="edge" data-name="star_state-&gt;IDLE">

<path fill="none" stroke="black" d="M694.15,-405.74C569.03,-394.71 232.93,-353.9 108.23,-334.61" style=""/>
<polygon fill="black" stroke="black" points="109.1,-331.21 98.68,-333.11 108.01,-338.12 109.1,-331.21"/>
<text text-anchor="middle" x="423.35" y="-357.58" font-family="Times,serif" font-size="14.00" style="">other / -</text>
</g>
<!-- star_state&#45;&gt;s_state -->
<g id="edge42" class="edge" data-name="star_state-&gt;s_state">

<path fill="none" stroke="black" d="M702.44,-380.6C614.37,-319.81 402.76,-173.74 314.03,-112.5"/>
<polygon fill="black" stroke="black" points="316.05,-109.64 305.83,-106.84 312.07,-115.4 316.05,-109.64"/>
<text text-anchor="middle" x="490.34" y="-250.75" font-family="Times,serif" font-size="14.00">s, S / -</text>
</g>
<!-- start_state -->
<g id="node6" class="node" pointer-events="visible" data-name="start_state">

<polygon fill="none" stroke="black" points="741.83,-589.07 662.89,-589.07 662.89,-547.87 741.83,-547.87 741.83,-589.07"/>
<text text-anchor="middle" x="702.36" y="-572.67" font-family="Times,serif" font-size="14.00">start_state</text>
<text text-anchor="middle" x="702.36" y="-555.87" font-family="Times,serif" font-size="14.00">(匹配 'start')</text>
</g>
<!-- star_state&#45;&gt;start_state -->
<g id="edge1" class="edge" data-name="star_state-&gt;start_state">

<path fill="none" stroke="blue" stroke-width="2" d="M730.5,-454.32C724.13,-480.15 716.35,-511.7 710.59,-535.08"/>
<polygon fill="blue" stroke="blue" stroke-width="2" points="707.26,-533.98 708.26,-544.53 714.05,-535.66 707.26,-533.98"/>
<text text-anchor="middle" x="701.88" y="-498.9" font-family="Times,serif" font-size="14.00" fill="blue">t, T / 1</text>
</g>
<!-- star_state&#45;&gt;h_state -->
<g id="edge53" class="edge" data-name="star_state-&gt;h_state">

<path fill="none" stroke="black" d="M719.76,-450.14C691.83,-503.35 644.1,-594.29 615.76,-648.29"/>
<polygon fill="black" stroke="black" points="612.78,-646.43 611.24,-656.91 618.98,-649.69 612.78,-646.43"/>
<text text-anchor="middle" x="647.93" y="-536.62" font-family="Times,serif" font-size="14.00">h, H / -</text>
</g>
<!-- start_state&#45;&gt;IDLE -->
<g id="edge14" class="edge" data-name="start_state-&gt;IDLE">

<path fill="none" stroke="red" stroke-width="2" stroke-dasharray="5,2" d="M662.5,-549.58C550.09,-502.42 230.85,-381.28 108.94,-339.43"/>
<polygon fill="red" stroke="red" stroke-width="2" points="110.21,-336.16 99.62,-336.26 107.96,-342.79 110.21,-336.16"/>
<text text-anchor="middle" x="419.17" y="-448.71" font-family="Times,serif" font-size="14.00" fill="red">CR, LF / 0*</text>
</g>
<!-- start_state&#45;&gt;IDLE -->
<g id="edge36" class="edge" data-name="start_state-&gt;IDLE">

<path fill="none" stroke="black" d="M662.46,-557C548.75,-518.52 223.68,-395.33 104.93,-345.83" style=""/>
<polygon fill="black" stroke="black" points="106.39,-342.64 95.82,-342 103.68,-349.1 106.39,-342.64"/>
<text text-anchor="middle" x="361.54" y="-455.61" font-family="Times,serif" font-size="14.00" style="">other / -</text>
</g>
<!-- start_state&#45;&gt;s_state -->
<g id="edge47" class="edge" data-name="start_state-&gt;s_state">

<path fill="none" stroke="black" d="M683.67,-547.37C617.04,-472.16 390.62,-216.58 306.04,-121.11"/>
<polygon fill="black" stroke="black" points="308.79,-118.94 299.54,-113.78 303.55,-123.59 308.79,-118.94"/>
<text text-anchor="middle" x="476.96" y="-338.44" font-family="Times,serif" font-size="14.00">s, S / -</text>
</g>
<!-- start_state&#45;&gt;h_state -->
<g id="edge59" class="edge" data-name="start_state-&gt;h_state">

<path fill="none" stroke="black" d="M683.75,-589.47C667.96,-607.3 644.91,-633.32 625.95,-654.72"/>
<polygon fill="black" stroke="black" points="623.39,-652.33 619.38,-662.13 628.63,-656.97 623.39,-652.33"/>
<text text-anchor="middle" x="635.02" y="-626.29" font-family="Times,serif" font-size="14.00">h, H / -</text>
</g>
<!-- sto_state&#45;&gt;IDLE -->
<g id="edge9" class="edge" data-name="sto_state-&gt;IDLE">

<path fill="none" stroke="red" stroke-width="2" stroke-dasharray="5,2" d="M657.32,-249.06C540.97,-259.08 231.09,-296.65 110.15,-315.32"/>
<polygon fill="red" stroke="red" stroke-width="2" points="109.68,-311.85 100.35,-316.87 110.77,-318.76 109.68,-311.85"/>
<text text-anchor="middle" x="350.28" y="-286.39" font-family="Times,serif" font-size="14.00" fill="red">CR, LF / 0*</text>
</g>
<!-- sto_state&#45;&gt;IDLE -->
<g id="edge31" class="edge" data-name="sto_state-&gt;IDLE">

<path fill="none" stroke="black" d="M658.2,-256.3C542.37,-274.49 230.45,-312.41 109.59,-323.05" style=""/>
<polygon fill="black" stroke="black" points="109.35,-319.55 99.68,-323.89 109.94,-326.53 109.35,-319.55"/>
<text text-anchor="middle" x="406.06" y="-277.07" font-family="Times,serif" font-size="14.00" style="">other / -</text>
</g>
<!-- sto_state&#45;&gt;s_state -->
<g id="edge43" class="edge" data-name="sto_state-&gt;s_state">

<path fill="none" stroke="black" d="M660.49,-231.39C579.76,-200.77 403.2,-133.81 319.53,-102.08"/>
<polygon fill="black" stroke="black" points="320.85,-98.83 310.26,-98.56 318.37,-105.38 320.85,-98.83"/>
<text text-anchor="middle" x="472.12" y="-170.93" font-family="Times,serif" font-size="14.00">s, S / -</text>
</g>
<!-- stop_state -->
<g id="node8" class="node" pointer-events="visible" data-name="stop_state">

<polygon fill="none" stroke="black" points="631.88,-144.06 553.47,-144.06 553.47,-102.85 631.88,-102.85 631.88,-144.06"/>
<text text-anchor="middle" x="592.68" y="-127.66" font-family="Times,serif" font-size="14.00">stop_state</text>
<text text-anchor="middle" x="592.68" y="-110.86" font-family="Times,serif" font-size="14.00">(匹配 'stop')</text>
</g>
<!-- sto_state&#45;&gt;stop_state -->
<g id="edge2" class="edge" data-name="sto_state-&gt;stop_state">

<path fill="none" stroke="blue" stroke-width="2" d="M672.68,-213.76C656.19,-195.15 635.83,-172.17 619.77,-154.05"/>
<polygon fill="blue" stroke="blue" stroke-width="2" points="622.61,-151.97 613.36,-146.8 617.37,-156.61 622.61,-151.97"/>
<text text-anchor="middle" x="626.39" y="-188.1" font-family="Times,serif" font-size="14.00" fill="blue">p, P / 2</text>
</g>
<!-- sto_state&#45;&gt;h_state -->
<g id="edge54" class="edge" data-name="sto_state-&gt;h_state">

<path fill="none" stroke="black" d="M691.64,-290.75C671.07,-374.24 626.15,-556.46 604.63,-643.76"/>
<polygon fill="black" stroke="black" points="601.3,-642.66 602.31,-653.21 608.1,-644.34 601.3,-642.66"/>
<text text-anchor="middle" x="628.31" y="-471.45" font-family="Times,serif" font-size="14.00">h, H / -</text>
</g>
<!-- stop_state&#45;&gt;IDLE -->
<g id="edge15" class="edge" data-name="stop_state-&gt;IDLE">

<path fill="none" stroke="red" stroke-width="2" stroke-dasharray="5,2" d="M553.11,-134.5C456.38,-166.96 208.43,-260.88 106.06,-303.7"/>
<polygon fill="red" stroke="red" stroke-width="2" points="104.96,-300.36 97.11,-307.48 107.68,-306.81 104.96,-300.36"/>
<text text-anchor="middle" x="296.14" y="-223.3" font-family="Times,serif" font-size="14.00" fill="red">CR, LF / 0*</text>
</g>
<!-- stop_state&#45;&gt;IDLE -->
<g id="edge37" class="edge" data-name="stop_state-&gt;IDLE">

<path fill="none" stroke="black" d="M553.18,-142.51C456.91,-183.15 210.63,-276.62 107.42,-311.74" style=""/>
<polygon fill="black" stroke="black" points="106.51,-308.35 98.15,-314.86 108.75,-314.99 106.51,-308.35"/>
<text text-anchor="middle" x="352.45" y="-231.33" font-family="Times,serif" font-size="14.00" style="">other / -</text>
</g>
<!-- stop_state&#45;&gt;s_state -->
<g id="edge48" class="edge" data-name="stop_state-&gt;s_state">

<path fill="none" stroke="black" d="M553.26,-118.67C494.91,-111.59 385.64,-98.32 322.41,-90.64"/>
<polygon fill="black" stroke="black" points="323.02,-87.19 312.67,-89.46 322.17,-94.14 323.02,-87.19"/>
<text text-anchor="middle" x="455.73" y="-108.86" font-family="Times,serif" font-size="14.00">s, S / -</text>
</g>
<!-- stop_state&#45;&gt;h_state -->
<g id="edge60" class="edge" data-name="stop_state-&gt;h_state">

<path fill="none" stroke="black" d="M592.68,-144.38C592.68,-225.85 592.68,-523.27 592.68,-642.42"/>
<polygon fill="black" stroke="black" points="589.18,-642.2 592.68,-652.2 596.18,-642.2 589.18,-642.2"/>
<text text-anchor="middle" x="572.84" y="-397.6" font-family="Times,serif" font-size="14.00">h, H / -</text>
</g>
<!-- h_state&#45;&gt;IDLE -->
<g id="edge10" class="edge" data-name="h_state-&gt;IDLE">

<path fill="none" stroke="red" stroke-width="2" stroke-dasharray="5,2" d="M565.25,-665.1C478.86,-594.94 212.88,-411.01 105.91,-347.04"/>
<polygon fill="red" stroke="red" stroke-width="2" points="107.87,-344.13 97.48,-342.07 104.32,-350.16 107.87,-344.13"/>
<text text-anchor="middle" x="302.13" y="-493.47" font-family="Times,serif" font-size="14.00" fill="red">CR, LF / 0*</text>
</g>
<!-- h_state&#45;&gt;IDLE -->
<g id="edge32" class="edge" data-name="h_state-&gt;IDLE">

<path fill="none" stroke="black" d="M561,-670.41C469.14,-607.01 202.75,-423.13 100.99,-352.89" style=""/>
<polygon fill="black" stroke="black" points="103.13,-350.11 92.91,-347.31 99.15,-355.87 103.13,-350.11"/>
<text text-anchor="middle" x="353.15" y="-515.85" font-family="Times,serif" font-size="14.00" style="">other / -</text>
</g>
<!-- h_state&#45;&gt;s_state -->
<g id="edge44" class="edge" data-name="h_state-&gt;s_state">

<path fill="none" stroke="black" d="M577.79,-656.77C527.36,-551.11 363.79,-239.19 299.73,-126.19"/>
<polygon fill="black" stroke="black" points="302.78,-124.46 294.78,-117.51 296.7,-127.93 302.78,-124.46"/>
<text text-anchor="middle" x="456.65" y="-395.68" font-family="Times,serif" font-size="14.00">s, S / -</text>
</g>
<!-- h_state&#45;&gt;h_state -->
<g id="edge55" class="edge" data-name="h_state-&gt;h_state">

<path fill="none" stroke="black" d="M630.63,-698.99C641.08,-698.66 649.07,-696.42 649.07,-692.28 649.07,-689.81 646.25,-688.02 641.77,-686.91"/>
<polygon fill="black" stroke="black" points="642.48,-683.47 632.13,-685.75 641.64,-690.42 642.48,-683.47"/>
<text text-anchor="middle" x="668.9" y="-688.08" font-family="Times,serif" font-size="14.00">h, H / -</text>
</g>
<!-- hi_state -->
<g id="node10" class="node" pointer-events="visible" data-name="hi_state">

<ellipse fill="none" stroke="black" cx="60.82" cy="-490.57" rx="41.15" ry="41.15"/>
<text text-anchor="middle" x="60.82" y="-486.37" font-family="Times,serif" font-size="14.00">hi_state</text>
</g>
<!-- h_state&#45;&gt;hi_state -->
<g id="edge23" class="edge" data-name="h_state-&gt;hi_state">

<path fill="none" stroke="black" d="M558.23,-675.37C467.09,-636.5 219.35,-542.36 111.79,-505.48"/>
<polygon fill="black" stroke="black" points="112.93,-502.18 102.34,-502.28 110.68,-508.81 112.93,-502.18"/>
<text text-anchor="middle" x="319.46" y="-577.83" font-family="Times,serif" font-size="14.00">i, I / -</text>
</g>
<!-- hi_state&#45;&gt;IDLE -->
<g id="edge11" class="edge" data-name="hi_state-&gt;IDLE">

<path fill="none" stroke="red" stroke-width="2" stroke-dasharray="5,2" d="M66.74,-449.68C67.72,-427.08 67.83,-398.83 67.07,-374.95"/>
<polygon fill="red" stroke="red" stroke-width="2" points="70.58,-375.07 66.68,-365.22 63.58,-375.35 70.58,-375.07"/>
<text text-anchor="middle" x="33.45" y="-416.51" font-family="Times,serif" font-size="14.00" fill="red">CR, LF / 0*</text>
</g>
<!-- hi_state&#45;&gt;IDLE -->
<g id="edge33" class="edge" data-name="hi_state-&gt;IDLE">

<path fill="none" stroke="black" d="M54.9,-449.68C53.9,-426.66 53.8,-397.78 54.61,-373.62" style=""/>
<polygon fill="black" stroke="black" points="58.11,-373.84 55.02,-363.71 51.11,-373.55 58.11,-373.84"/>
<text text-anchor="middle" x="32.6" y="-399.05" font-family="Times,serif" font-size="14.00" style="">other / -</text>
</g>
<!-- hi_state&#45;&gt;s_state -->
<g id="edge45" class="edge" data-name="hi_state-&gt;s_state">

<path fill="none" stroke="black" d="M80.1,-453.84C119.53,-378.71 209.21,-207.84 251.26,-127.72"/>
<polygon fill="black" stroke="black" points="254.14,-129.77 255.68,-119.29 247.94,-126.52 254.14,-129.77"/>
<text text-anchor="middle" x="147.79" y="-294.98" font-family="Times,serif" font-size="14.00">s, S / -</text>
</g>
<!-- hi_state&#45;&gt;h_state -->
<g id="edge56" class="edge" data-name="hi_state-&gt;h_state">

<path fill="none" stroke="black" d="M98.18,-508.72C192.38,-548.65 439.5,-642.48 544.44,-678.3"/>
<polygon fill="black" stroke="black" points="543.31,-681.61 553.9,-681.49 545.55,-674.98 543.31,-681.61"/>
<text text-anchor="middle" x="301.48" y="-597.71" font-family="Times,serif" font-size="14.00">h, H / -</text>
</g>
<!-- hit_state -->
<g id="node11" class="node" pointer-events="visible" data-name="hit_state">

<ellipse fill="none" stroke="black" cx="137.69" cy="-637.03" rx="43.51" ry="43.51"/>
<text text-anchor="middle" x="137.69" y="-632.83" font-family="Times,serif" font-size="14.00">hit_state</text>
</g>
<!-- hi_state&#45;&gt;hit_state -->
<g id="edge24" class="edge" data-name="hi_state-&gt;hit_state">

<path fill="none" stroke="black" d="M80.02,-527.15C89.68,-545.55 101.51,-568.11 111.95,-587.99"/>
<polygon fill="black" stroke="black" points="108.81,-589.53 116.55,-596.76 115,-586.28 108.81,-589.53"/>
<text text-anchor="middle" x="78.49" y="-561.77" font-family="Times,serif" font-size="14.00">t, T / -</text>
</g>
<!-- hit_state&#45;&gt;IDLE -->
<g id="edge12" class="edge" data-name="hit_state-&gt;IDLE">

<path fill="none" stroke="red" stroke-width="2" stroke-dasharray="5,2" d="M131.91,-593.5C120.15,-535.33 94.93,-432.66 77.72,-372.58"/>
<polygon fill="red" stroke="red" stroke-width="2" points="81.08,-371.61 74.92,-362.99 74.36,-373.57 81.08,-371.61"/>
<text text-anchor="middle" x="138.26" y="-487.24" font-family="Times,serif" font-size="14.00" fill="red">CR, LF / 0*</text>
</g>
<!-- hit_state&#45;&gt;IDLE -->
<g id="edge34" class="edge" data-name="hit_state-&gt;IDLE">

<path fill="none" stroke="black" d="M122.58,-595.8C105.82,-538.35 80.14,-434.47 67.58,-373.48" style=""/>
<polygon fill="black" stroke="black" points="71.02,-372.84 65.62,-363.72 64.16,-374.22 71.02,-372.84"/>
<text text-anchor="middle" x="117.24" y="-472.04" font-family="Times,serif" font-size="14.00" style="">other / -</text>
</g>
<!-- hit_state&#45;&gt;h_state -->
<g id="edge57" class="edge" data-name="hit_state-&gt;h_state">

<path fill="none" stroke="black" d="M181.31,-642.33C266.33,-652.65 453.69,-675.4 543.19,-686.27"/>
<polygon fill="black" stroke="black" points="542.53,-689.71 552.87,-687.44 543.37,-682.76 542.53,-689.71"/>
<text text-anchor="middle" x="342.42" y="-668.5" font-family="Times,serif" font-size="14.00">h, H / -</text>
</g>
<!-- hits_state -->
<g id="node12" class="node" pointer-events="visible" data-name="hits_state">

<ellipse fill="none" stroke="black" cx="273.82" cy="-730.99" rx="47.53" ry="47.53"/>
<text text-anchor="middle" x="273.82" y="-726.79" font-family="Times,serif" font-size="14.00">hits_state</text>
</g>
<!-- hit_state&#45;&gt;hits_state -->
<g id="edge25" class="edge" data-name="hit_state-&gt;hits_state">

<path fill="none" stroke="black" d="M173.81,-661.96C189.63,-672.88 208.42,-685.85 225.42,-697.59"/>
<polygon fill="black" stroke="black" points="223.19,-700.3 233.41,-703.1 227.17,-694.54 223.19,-700.3"/>
<text text-anchor="middle" x="217.51" y="-667.18" font-family="Times,serif" font-size="14.00">s, S / -</text>
</g>
<!-- hits_state&#45;&gt;IDLE -->
<g id="edge13" class="edge" data-name="hits_state-&gt;IDLE">

<path fill="none" stroke="red" stroke-width="2" stroke-dasharray="5,2" d="M255.45,-686.7C217.75,-607.97 132.13,-444.76 88,-367.47"/>
<polygon fill="red" stroke="red" stroke-width="2" points="91.09,-365.81 83.06,-358.9 85.02,-369.31 91.09,-365.81"/>
<text text-anchor="middle" x="138.28" y="-514.49" font-family="Times,serif" font-size="14.00" fill="red">CR, LF / 0*</text>
</g>
<!-- hits_state&#45;&gt;IDLE -->
<g id="edge35" class="edge" data-name="hits_state-&gt;IDLE">

<path fill="none" stroke="black" d="M247.8,-690.72C204.15,-614.5 117.68,-449.77 79.49,-370.1" style=""/>
<polygon fill="black" stroke="black" points="82.75,-368.79 75.3,-361.26 76.42,-371.8 82.75,-368.79"/>
<text text-anchor="middle" x="141.49" y="-534.61" font-family="Times,serif" font-size="14.00" style="">other / -</text>
</g>
<!-- hits_state&#45;&gt;s_state -->
<g id="edge46" class="edge" data-name="hits_state-&gt;s_state">

<path fill="none" stroke="black" d="M273.82,-683.21C273.82,-563.95 273.82,-254.17 273.82,-133.69"/>
<polygon fill="black" stroke="black" points="277.32,-133.81 273.82,-123.81 270.32,-133.81 277.32,-133.81"/>
<text text-anchor="middle" x="255.92" y="-412.65" font-family="Times,serif" font-size="14.00">s, S / -</text>
</g>
<!-- hits_state&#45;&gt;h_state -->
<g id="edge58" class="edge" data-name="hits_state-&gt;h_state">

<path fill="none" stroke="black" d="M321.21,-725.24C380.86,-718 482.82,-705.62 543.36,-698.26"/>
<polygon fill="black" stroke="black" points="543.52,-701.77 553.03,-697.09 542.68,-694.82 543.52,-701.77"/>
<text text-anchor="middle" x="412.46" y="-715.95" font-family="Times,serif" font-size="14.00">h, H / -</text>
</g>
<!-- hitsz_state -->
<g id="node13" class="node" pointer-events="visible" data-name="hitsz_state">

<polygon fill="none" stroke="black" points="478.83,-771.53 397.21,-771.53 397.21,-730.33 478.83,-730.33 478.83,-771.53"/>
<text text-anchor="middle" x="438.02" y="-755.13" font-family="Times,serif" font-size="14.00">hitsz_state</text>
<text text-anchor="middle" x="438.02" y="-738.33" font-family="Times,serif" font-size="14.00">(匹配 'hitsz')</text>
</g>
<!-- hits_state&#45;&gt;hitsz_state -->
<g id="edge3" class="edge" data-name="hits_state-&gt;hitsz_state">

<path fill="none" stroke="blue" stroke-width="2" d="M321.31,-736.76C340.89,-739.14 363.68,-741.9 383.9,-744.36"/>
<polygon fill="blue" stroke="blue" stroke-width="2" points="383.41,-747.83 393.76,-745.56 384.25,-740.88 383.41,-747.83"/>
<text text-anchor="middle" x="372.44" y="-744.76" font-family="Times,serif" font-size="14.00" fill="blue">z, Z / 3</text>
</g>
<!-- hitsz_state&#45;&gt;IDLE -->
<g id="edge16" class="edge" data-name="hitsz_state-&gt;IDLE">

<path fill="none" stroke="red" stroke-width="2" stroke-dasharray="5,2" d="M423.56,-730.1C369.3,-661.87 177.69,-445.05 96.99,-359.91"/>
<polygon fill="red" stroke="red" stroke-width="2" points="99.69,-357.67 90.25,-352.85 94.63,-362.5 99.69,-357.67"/>
<text text-anchor="middle" x="226.82" y="-532.4" font-family="Times,serif" font-size="14.00" fill="red">CR, LF / 0*</text>
</g>
<!-- hitsz_state&#45;&gt;IDLE -->
<g id="edge38" class="edge" data-name="hitsz_state-&gt;IDLE">

<path fill="none" stroke="black" d="M415.01,-729.91C349.52,-662.59 162.68,-452.04 90.08,-364.2" style=""/>
<polygon fill="black" stroke="black" points="92.82,-362.02 83.77,-356.51 87.41,-366.46 92.82,-362.02"/>
<text text-anchor="middle" x="230.39" y="-551.26" font-family="Times,serif" font-size="14.00" style="">other / -</text>
</g>
<!-- hitsz_state&#45;&gt;s_state -->
<g id="edge49" class="edge" data-name="hitsz_state-&gt;s_state">

<path fill="none" stroke="black" d="M432.83,-729.89C410,-637.27 318.13,-264.53 285.44,-131.89"/>
<polygon fill="black" stroke="black" points="288.89,-131.26 283.09,-122.38 282.09,-132.93 288.89,-131.26"/>
<text text-anchor="middle" x="341.24" y="-418.29" font-family="Times,serif" font-size="14.00">s, S / -</text>
</g>
<!-- hitsz_state&#45;&gt;h_state -->
<g id="edge61" class="edge" data-name="hitsz_state-&gt;h_state">

<path fill="none" stroke="black" d="M479.06,-735.37C499.56,-727.59 524.46,-718.15 545.71,-710.09"/>
<polygon fill="black" stroke="black" points="546.93,-713.37 555.04,-706.55 544.45,-706.82 546.93,-713.37"/>
<text text-anchor="middle" x="492.55" y="-710.13" font-family="Times,serif" font-size="14.00">h, H / -</text>
</g>
</g>
</svg>